<?xml version="1.0" encoding="utf-8"?>
<!-- Generator: Adobe Illustrator 22.0.0, SVG Export Plug-In . SVG Version: 6.00 Build 0)  -->
<svg version="1.1" id="Layer_1" xmlns="http://www.w3.org/2000/svg" xmlns:xlink="http://www.w3.org/1999/xlink" x="0px" y="0px"
	 viewBox="0 0 512 512" style="enable-background:new 0 0 512 512;" xml:space="preserve">
<style type="text/css">
	.st0{fill:#CECECE;}
	.st1{fill:#CFCFCE;}
</style>
<g>
	<g>
		<ellipse class="st0" cx="256" cy="41" rx="42" ry="41"/>
		<path class="st0" d="M256,117.2c-46.4,0-84,36.7-84,82h168C340,154,302.4,117.2,256,117.2z"/>
		<polygon class="st0" points="395.2,217.4 116.8,217.4 116.8,250.1 143.6,250.1 164,512 348,512 368.4,250.1 395.2,250.1 		"/>
	</g>
</g>
<rect x="135.8" y="176.4" transform="matrix(0.9332 -0.3593 0.3593 0.9332 -65.1982 63.8975)" class="st1" width="7" height="62"/>
<rect x="134.5" y="155.2" transform="matrix(0.7322 0.6811 -0.6811 0.7322 153.2284 -48.2804)" class="st1" width="7" height="31"/>
<rect x="137.7" y="147.3" transform="matrix(0.7071 0.7071 -0.7071 0.7071 156.6687 -57.3481)" class="st1" width="19.8" height="26.2"/>
</svg>
