<?xml version="1.0" encoding="utf-8"?>
<!-- Generator: Adobe Illustrator 22.0.0, SVG Export Plug-In . SVG Version: 6.00 Build 0)  -->
<svg version="1.1" xmlns="http://www.w3.org/2000/svg" xmlns:xlink="http://www.w3.org/1999/xlink" x="0px" y="0px"
	 viewBox="0 0 512 512" style="enable-background:new 0 0 512 512;" xml:space="preserve">
<style type="text/css">
	.st0{display:none;}
	.st1{fill:none;stroke:#CECECE;stroke-width:30;stroke-miterlimit:10;}
	.st2{fill:none;stroke:#CECECE;stroke-width:17;stroke-miterlimit:10;}
</style>
<g id="Capa_1" class="st0">
	<image style="display:inline;overflow:visible;" width="512" height="512" xlink:href="../../../../Downloads/470167.png" >
	</image>
</g>
<g id="Layer_2">
	<line class="st1" x1="15" y1="339.3" x2="15" y2="53"/>
	<line class="st1" x1="497" y1="339.3" x2="497" y2="53"/>
	<line class="st1" x1="0" y1="53" x2="512" y2="53"/>
	<line class="st1" x1="0" y1="339.3" x2="79.1" y2="339.3"/>
	<line class="st1" x1="433.1" y1="339.3" x2="512.1" y2="339.3"/>
	<path class="st2" d="M97,375.6l0.2-57.5c0-4.6,3.7-8.4,8.2-8.4h75.2c4.5,0,8.2,3.8,8.2,8.4l-0.4,57.5"/>
	<path class="st2" d="M209.9,375.6l0.2-57.5c0-4.6,3.7-8.4,8.2-8.4h75.2c4.5,0,8.2,3.8,8.2,8.4l-0.4,57.5"/>
	<path class="st2" d="M323.2,375.6l0.2-57.5c0-4.6,3.7-8.4,8.2-8.4h75.2c4.5,0,8.2,3.8,8.2,8.4l-0.4,57.5"/>
	<path class="st2" d="M40,449.6l0.2-57.5c0-4.6,3.7-8.4,8.2-8.4h75.2c4.5,0,8.2,3.8,8.2,8.4l-0.4,57.5"/>
	<path class="st2" d="M152.9,449.6l0.2-57.5c0-4.6,3.7-8.4,8.2-8.4h75.2c4.5,0,8.2,3.8,8.2,8.4l-0.4,57.5"/>
	<path class="st2" d="M266.2,449.6l0.2-57.5c0-4.6,3.7-8.4,8.2-8.4h75.2c4.5,0,8.2,3.8,8.2,8.4l-0.4,57.5"/>
	<path class="st2" d="M379.2,449.6l0.2-57.5c0-4.6,3.7-8.4,8.2-8.4h75.2c4.5,0,8.2,3.8,8.2,8.4l-0.4,57.5"/>
</g>
</svg>
