<?xml version="1.0"?>
<svg xmlns="http://www.w3.org/2000/svg" xmlns:xlink="http://www.w3.org/1999/xlink" version="1.1" id="Capa_1" x="0px" y="0px" viewBox="0 0 612.002 612.002" style="enable-background:new 0 0 612.002 612.002;" xml:space="preserve" width="512px" height="512px"><g><g>
	<g>
		<path d="M361.456,308.393c0.035,0.457,0.068,0.909,0.068,1.375v19.939c0,10.077-8.162,18.235-18.235,18.235h-74.582    c-10.073,0-18.235-8.158-18.235-18.235v-19.939c0-0.466,0.035-0.92,0.07-1.375L0,244.126V536.35    c0,8.891,7.204,16.097,16.095,16.097h49.542v13.88c0,1.932,1.567,3.494,3.498,3.494h41.666c1.929,0,3.494-1.562,3.494-3.494    v-13.88h383.407v13.88c0,1.932,1.564,3.494,3.494,3.494h41.666c1.929,0,3.495-1.562,3.495-3.494v-13.88h49.545    c8.888,0,16.099-7.205,16.099-16.097V244.126L361.456,308.393z" data-original="#000000" class="active-path" data-old_color="#000000" fill="#CECECE"/>
		<path d="M306.001,289.385l306.001-78.491v-74.87c0-8.89-7.211-16.093-16.099-16.093h-178.85V62.814    c0-11.394-9.239-20.633-20.635-20.633H215.577c-11.393,0-20.632,9.239-20.632,20.633v57.117H16.095    C7.204,119.931,0,127.134,0,136.024v74.872L306.001,289.385z M240.01,87.245h131.977v32.686H240.01V87.245z" data-original="#000000" class="active-path" data-old_color="#000000" fill="#CECECE"/>
	</g>
</g></g> </svg>
